<?xml version="1.0" standalone="no"?>
<!DOCTYPE svg PUBLIC "-//W3C//DTD SVG 20010904//EN"
 "http://www.w3.org/TR/2001/REC-SVG-20010904/DTD/svg10.dtd">
<svg version="1.0" xmlns="http://www.w3.org/2000/svg"
 width="300.000000pt" height="82.000000pt" viewBox="0 0 300.000000 82.000000"
 preserveAspectRatio="xMidYMid meet">
<metadata>
Created by potrace 1.16, written by Peter Selinger 2001-2019
</metadata>
<g transform="translate(0.000000,82.000000) scale(0.100000,-0.100000)"
fill="#000000" stroke="none">
<path d="M57 762 l-58 -59 3 -62 3 -61 120 120 120 120 -65 0 -66 0 -57 -58z"/>
<path d="M182 637 l-183 -183 3 -62 3 -62 245 245 245 245 -65 0 -65 0 -183
-183z"/>
<path d="M307 512 l-308 -308 3 -62 3 -62 370 370 370 370 -65 0 -65 0 -308
-308z"/>
<path d="M455 410 l-410 -410 65 0 65 0 410 410 410 410 -65 0 -65 0 -410
-410z"/>
<path d="M705 410 l-410 -410 65 0 65 0 410 410 410 410 -65 0 -65 0 -410
-410z"/>
<path d="M955 410 l-410 -410 65 0 65 0 410 410 410 410 -65 0 -65 0 -410
-410z"/>
<path d="M1205 410 l-410 -410 65 0 65 0 410 410 410 410 -65 0 -65 0 -410
-410z"/>
<path d="M1455 410 l-410 -410 65 0 65 0 410 410 410 410 -65 0 -65 0 -410
-410z"/>
<path d="M1705 410 l-410 -410 65 0 65 0 410 410 410 410 -65 0 -65 0 -410
-410z"/>
<path d="M1955 410 l-410 -410 65 0 65 0 410 410 410 410 -65 0 -65 0 -410
-410z"/>
<path d="M2205 410 l-410 -410 65 0 65 0 410 410 410 410 -65 0 -65 0 -410
-410z"/>
<path d="M2455 410 l-410 -410 65 0 65 0 410 410 410 410 -65 0 -65 0 -410
-410z"/>
<path d="M2645 350 l-350 -350 65 0 65 0 288 288 288 288 -3 62 -3 62 -350
-350z"/>
<path d="M2770 225 l-225 -225 65 0 65 0 163 163 163 163 -3 62 -3 62 -225
-225z"/>
<path d="M2895 100 l-100 -100 66 0 c62 0 67 2 102 38 37 38 38 41 35 101 l-3
62 -100 -101z"/>
</g>
</svg>
